<svg width="72" height="72" viewBox="0 0 72 72" fill="none" xmlns="http://www.w3.org/2000/svg">
<path d="M0 36C0 16.1178 16.1178 0 36 0C55.8823 0 72 16.1178 72 36C72 55.8823 55.8823 72 36 72C16.1178 72 0 55.8823 0 36Z" fill="#E74040"/>
<g clip-path="url(#clip0_3_211)">
<path d="M35.9909 24.2182C29.0159 18.1176 20.1473 23.4778 20.0018 30.7444C19.9648 32.5964 20.4994 34.4003 21.5635 36.0633H28.4607L29.6875 34.0186C30.0437 33.425 30.9058 33.4059 31.2822 33.9977L33.8705 38.0651L37.6436 30.1C37.9726 29.405 38.9532 29.3829 39.3161 30.0569L42.5504 36.0633H50.4184C56.2468 26.954 44.7279 16.5766 35.9909 24.2182Z" fill="white"/>
<path d="M41.1651 37.4452L38.5443 32.578L34.8383 40.4018C34.523 41.0674 33.5956 41.1252 33.2002 40.5037L30.5148 36.2839L29.7953 37.483C29.6259 37.7654 29.3208 37.9381 28.9915 37.9381H23.0464C23.2328 38.1332 22.2395 37.1419 35.3297 50.1643C35.6953 50.5281 36.2863 50.5282 36.652 50.1643C49.5408 37.3423 48.7493 38.1328 48.9353 37.9381H41.9905C41.6456 37.9382 41.3286 37.7488 41.1651 37.4452Z" fill="white"/>
</g>
<defs>
<clipPath id="clip0_3_211">
<rect width="32" height="32" fill="white" transform="translate(20 20)"/>
</clipPath>
</defs>
</svg>
