<svg width="72" height="72" viewBox="0 0 72 72" fill="none" xmlns="http://www.w3.org/2000/svg">
<path d="M0 36C0 16.1178 16.1178 0 36 0C55.8823 0 72 16.1178 72 36C72 55.8823 55.8823 72 36 72C16.1178 72 0 55.8823 0 36Z" fill="#E74040"/>
<g clip-path="url(#clip0_3_232)">
<path d="M26.3484 52H45.6516C46.8003 52 47.7565 51.1215 47.7565 50.0418V26.6285C47.7565 25.5486 46.8003 24.6609 45.6516 24.6609H42.4696V26.4486C42.4742 26.759 42.2293 27.0157 41.9193 27.0261H30.0429C29.7266 27.0185 29.4712 26.7649 29.4609 26.4486V24.6609H26.3484C25.1997 24.6609 24.2435 25.5486 24.2435 26.6285V50.0418C24.2435 51.1215 25.1997 52 26.3484 52ZM30.6435 34.0522C30.6435 33.7448 30.8927 33.4956 31.2 33.4956H34.0522V30.6435C34.0522 30.3361 34.3013 30.0869 34.6087 30.0869H37.3913C37.6986 30.0869 37.9478 30.3361 37.9478 30.6435V33.4956H40.8C41.1073 33.4956 41.3565 33.7448 41.3565 34.0522V36.8348C41.3565 37.1421 41.1073 37.3913 40.8 37.3913H37.9478V40.2435C37.9478 40.5508 37.6986 40.8 37.3913 40.8H34.6087C34.3013 40.8 34.0522 40.5508 34.0522 40.2435V37.3913H31.2C30.8927 37.3913 30.6435 37.1421 30.6435 36.8348V34.0522ZM30.8701 43.6522H41.1299C41.4375 43.6522 41.6864 43.9013 41.6864 44.2087C41.6864 44.516 41.4375 44.7652 41.1299 44.7652H30.8701C30.5625 44.7652 30.3136 44.516 30.3136 44.2087C30.3136 43.9013 30.5625 43.6522 30.8701 43.6522ZM28.7831 46.4348H43.2168C43.5244 46.4348 43.7734 46.684 43.7734 46.9913C43.7734 47.2986 43.5244 47.5478 43.2168 47.5478H28.7831C28.4755 47.5478 28.2266 47.2986 28.2266 46.9913C28.2266 46.684 28.4755 46.4348 28.7831 46.4348Z" fill="white"/>
<path d="M41.3565 22.1565H38.7522C38.4902 22.1563 38.2636 21.9734 38.2084 21.7171C37.9932 20.7226 37.0486 20 35.9622 20H35.9554C34.8981 19.9989 33.9745 20.7144 33.7114 21.7383C33.6481 21.9842 33.4264 22.1563 33.1723 22.1565H30.5739V25.913H41.3565V22.1565Z" fill="white"/>
<path d="M35.1652 36.8348V39.687H36.8348V36.8348C36.8348 36.5275 37.084 36.2783 37.3913 36.2783H40.2435V34.6087H37.3913C37.084 34.6087 36.8348 34.3595 36.8348 34.0522V31.2H35.1652V34.0522C35.1652 34.3595 34.916 34.6087 34.6087 34.6087H31.7565V36.2783H34.6087C34.916 36.2783 35.1652 36.5275 35.1652 36.8348Z" fill="white"/>
</g>
<defs>
<clipPath id="clip0_3_232">
<rect width="32" height="32" fill="white" transform="translate(20 20)"/>
</clipPath>
</defs>
</svg>
